<svg width="114" height="151" viewBox="0 0 114 151" fill="none" xmlns="http://www.w3.org/2000/svg">
<path d="M94.7343 115.614C92.4464 117.597 88.6333 120.495 83.2567 122.402C67.2797 128.045 51.8365 119.809 46.0787 116.758C37.8042 112.373 32.3514 106.997 28.2714 102.916C22.7042 97.3874 18.7004 92.0872 16.0312 88.0834C15.5737 93.4218 15.078 107.302 23.1999 121.791C24.8396 124.728 34.83 141.849 55.6497 148.407C86.5742 158.131 112.351 135.557 113.609 134.413C107.356 128.159 101.026 121.868 94.7343 115.614Z" fill="url(#paint0_linear_273_5475)"/>
<path d="M16 88C13.5596 82.5472 10.9598 75.9194 8.97696 68.0644C7.18478 60.9338 6.26963 54.4515 5.81206 48.8843C4.2868 53.1932 2.38024 59.523 1.35069 67.3399C-0.0982978 77.9023 -3.49199 103.069 12.0275 124.003C27.9663 145.547 53.6669 148.788 59.0434 149.36C54.6964 148.216 36.8509 142.954 25.1065 124.918C14.7348 109.056 15.5806 92.9571 16 88Z" fill="#55A7D6"/>
<path d="M69.5295 38.5508C65.0681 38.6652 58.1664 38.322 50.2732 35.7672C44.8585 33.975 37.1941 31.4583 30.8643 24.4803C22.628 15.3288 21.7891 4.15631 21.7128 0C19.5775 1.9447 10.0446 11.0581 9.62519 25.1667C9.28201 37.1399 15.6499 45.7576 18.4335 49.4944C21.9797 54.299 25.831 57.502 28.5383 59.4467C31.7795 55.4811 37.8952 49.3045 48 44.5C56.6558 40.4199 64.6868 38.8558 69.5295 38.5508Z" fill="#B62282"/>
<path d="M28.5764 59.4468C34.0292 61.6584 41.6555 64.1369 50.6545 65.2046C54.277 65.624 61.9795 66.5773 67.2416 65.4715C67.7373 65.3571 69.4532 64.9758 71.8174 64.8614C71.8174 64.8614 74.9441 64.6708 78.0709 65.1665C82.1128 65.7766 88.3282 68.2551 94.6961 73.2884C100.721 66.768 106.784 60.2475 112.809 53.7271C107.775 49.4564 98.5855 42.9359 85.7353 40.0379C77.0032 38.0551 69.9871 38.5508 67.928 38.7033C65.1444 38.9321 59.6535 39.5803 53.3237 41.8682C40.7785 46.3677 32.6565 54.6041 28.5764 59.4468Z" fill="url(#paint1_linear_273_5475)"/>
<path d="M28.5765 59.4467C26.3267 62.1159 23.8101 65.5859 21.5603 69.971C17.976 76.9871 16.527 83.5076 15.9169 88.0833C18.3954 91.7058 22.0179 96.5485 27.0512 101.696C31.7032 106.463 37.9949 112.754 47.9472 117.711C52.5 120.5 59.6154 123.165 68.5 124.5C52.7136 121.373 41.4648 106.653 42.7232 92.0109C43.7909 79.6182 53.2474 68.827 66.2121 65.6621C60.683 66.0053 53.4762 65.929 45.2399 64.3657C38.6431 63.1455 33.0378 61.277 28.5765 59.4467Z" fill="url(#paint2_linear_273_5475)"/>
<defs>
<linearGradient id="paint0_linear_273_5475" x1="107.44" y1="130.886" x2="18.9398" y2="90.8856" gradientUnits="userSpaceOnUse">
<stop stop-color="#029DE0"/>
<stop offset="1" stop-color="#36368A"/>
</linearGradient>
<linearGradient id="paint1_linear_273_5475" x1="93.9398" y1="64.8856" x2="32.4398" y2="59.8856" gradientUnits="userSpaceOnUse">
<stop stop-color="#0C87CB"/>
<stop offset="1" stop-color="#393486"/>
</linearGradient>
<linearGradient id="paint2_linear_273_5475" x1="18.9399" y1="77.3856" x2="41.9399" y2="86.3856" gradientUnits="userSpaceOnUse">
<stop stop-color="#9AC432"/>
<stop offset="1" stop-color="#72BD84"/>
</linearGradient>
</defs>
</svg>
